<?xml version="1.0" encoding="UTF-8" standalone="no" ?>
<!DOCTYPE svg PUBLIC "-//W3C//DTD SVG 1.1//EN" "http://www.w3.org/Graphics/SVG/1.1/DTD/svg11.dtd">
<svg xmlns="http://www.w3.org/2000/svg" xmlns:xlink="http://www.w3.org/1999/xlink" version="1.1" width="190" height="55" viewBox="0 0 190 55" xml:space="preserve">
<desc>Created with Fabric.js 5.2.4</desc>
<defs>
</defs>
<rect x="0" y="0" width="100%" height="100%" fill="transparent"></rect>
<g transform="matrix(Infinity NaN NaN Infinity 0 0)" id="8db06a21-7085-41fe-996d-024332e5ac84"  >
</g>
<g transform="matrix(1 0 0 1 95 27.5)" id="174f2eb5-8858-4f48-99f5-9c1f419b3416"  >
<rect style="stroke: none; stroke-width: 1; stroke-dasharray: none; stroke-linecap: butt; stroke-dashoffset: 0; stroke-linejoin: miter; stroke-miterlimit: 4; fill: rgb(255,255,255); fill-rule: nonzero; opacity: 1; visibility: hidden;" vector-effect="non-scaling-stroke"  x="-95" y="-27.5" rx="0" ry="0" width="190" height="55" />
</g>
<g transform="matrix(0.43 0 0 0.43 92.52 25.84)"  >
<path style="stroke: rgb(0,0,0); stroke-width: 0; stroke-dasharray: none; stroke-linecap: butt; stroke-dashoffset: 0; stroke-linejoin: miter; stroke-miterlimit: 4; fill: rgb(0,203,255); fill-rule: nonzero; opacity: 1;" vector-effect="non-scaling-stroke"  transform=" translate(-512, -383.94)" d="M 332.04 325.3 L 302 445.48 L 336.34000000000003 445.48 L 344.92 411.14 L 396.42 411.14 L 405 445.48 L 439.34000000000003 445.48 L 409.29 325.3 Z M 413.65000000000003 328.18 C 414.01000000000005 328.53000000000003 414.43 328.81 414.91 329 C 415.39000000000004 329.2 415.90000000000003 329.29 416.44 329.29 C 416.98 329.29 417.48 329.19 417.96 329 C 418.44 328.8 418.84999999999997 328.53 419.21 328.18 C 419.57 327.83 419.84999999999997 327.41 420.06 326.93 C 420.27 326.45 420.37 325.93 420.37 325.36 C 420.37 324.81 420.27 324.29 420.06 323.82 C 419.85 323.34 419.57 322.93 419.21 322.58 C 418.84999999999997 322.22999999999996 418.44 321.96 417.96 321.76 C 417.47999999999996 321.56 416.97999999999996 321.46 416.44 321.46 C 415.9 321.46 415.39 321.56 414.91 321.76 C 414.43 321.96 414.01000000000005 322.23 413.65000000000003 322.58 C 413.29 322.93 413.01000000000005 323.34 412.8 323.82 C 412.59000000000003 324.3 412.49 324.81 412.49 325.36 C 412.49 325.93 412.59000000000003 326.45 412.8 326.93 C 413 327.41 413.29 327.83 413.65000000000003 328.18 z M 413.44000000000005 324.05 C 413.6000000000001 323.65000000000003 413.83000000000004 323.29 414.12000000000006 323 C 414.4100000000001 322.7 414.75000000000006 322.47 415.15000000000003 322.3 C 415.54 322.13 415.97 322.04 416.43 322.04 C 416.88 322.04 417.31 322.13 417.7 322.3 C 418.09 322.47 418.43 322.71000000000004 418.71999999999997 323 C 419.01 323.3 419.23999999999995 323.65 419.4 324.05 C 419.56 324.46000000000004 419.65 324.89 419.65 325.36 C 419.65 325.84000000000003 419.57 326.29 419.4 326.7 C 419.23999999999995 327.11 419.01 327.46 418.71999999999997 327.76 C 418.42999999999995 328.06 418.09 328.3 417.7 328.46999999999997 C 417.31 328.64 416.89 328.72999999999996 416.43 328.72999999999996 C 415.97 328.72999999999996 415.54 328.64 415.15000000000003 328.46999999999997 C 414.76000000000005 328.29999999999995 414.41 328.05999999999995 414.12000000000006 327.76 C 413.83000000000004 327.46 413.6000000000001 327.09999999999997 413.44000000000005 326.7 C 413.28000000000003 326.28999999999996 413.19000000000005 325.84999999999997 413.19000000000005 325.36 C 413.19000000000005 324.90000000000003 413.27000000000004 324.46000000000004 413.44000000000005 324.05 z M 415.61000000000007 325.7 L 416.36000000000007 325.7 L 417.61000000000007 327.67 L 418.38000000000005 327.67 L 417.07000000000005 325.65000000000003 C 417.41 325.62000000000006 417.70000000000005 325.50000000000006 417.93000000000006 325.31000000000006 C 418.1600000000001 325.12000000000006 418.2800000000001 324.82000000000005 418.2800000000001 324.40000000000003 C 418.2800000000001 323.96000000000004 418.1500000000001 323.63000000000005 417.8900000000001 323.41 C 417.6300000000001 323.19 417.2200000000001 323.09000000000003 416.6800000000001 323.09000000000003 L 414.91000000000014 323.09000000000003 L 414.91000000000014 327.67 L 415.6200000000001 327.67 L 415.6200000000001 325.7 z M 415.61000000000007 323.67 L 416.55000000000007 323.67 C 416.6700000000001 323.67 416.7900000000001 323.68 416.9100000000001 323.7 C 417.0300000000001 323.71999999999997 417.1400000000001 323.75 417.2300000000001 323.8 C 417.32000000000005 323.85 417.4000000000001 323.92 417.4600000000001 324.01 C 417.5200000000001 324.09999999999997 417.55000000000007 324.21999999999997 417.55000000000007 324.38 C 417.55000000000007 324.56 417.5200000000001 324.7 417.45000000000005 324.8 C 417.38000000000005 324.90000000000003 417.29 324.98 417.18000000000006 325.03000000000003 C 417.07000000000005 325.08000000000004 416.94000000000005 325.11 416.80000000000007 325.12 C 416.6600000000001 325.13 416.50000000000006 325.14 416.3400000000001 325.14 L 415.6000000000001 325.14 L 415.6000000000001 323.66999999999996 z M 351.3500000000001 385.39 L 359.93000000000006 351.04999999999995 L 370.06000000000006 351.04999999999995 L 375.1600000000001 372.24999999999994 L 378.2100000000001 361.65999999999997 L 384.05000000000007 361.65999999999997 L 389.9800000000001 385.38 L 351.35 385.38 Z M 542.79 364.45 L 531.25 364.45 L 531.25 325.3 L 519.05 325.3 L 519.05 375.84000000000003 L 542.79 375.84000000000003 z M 569.99 376.78999999999996 C 586.13 376.78999999999996 596.4300000000001 365.24999999999994 596.4300000000001 350.41999999999996 C 596.4300000000001 335.66999999999996 586.2 324.34 569.6200000000001 324.34 C 554.0600000000002 324.34 543.4000000000001 335.95 543.4000000000001 350.63 C 543.4000000000001 365.46999999999997 553.4100000000001 376.79 569.9900000000001 376.79 z M 569.84 335.73999999999995 C 578.5300000000001 335.73999999999995 583.64 342.38999999999993 583.64 350.56999999999994 C 583.64 358.74999999999994 578.89 365.3999999999999 569.91 365.3999999999999 C 561.4399999999999 365.3999999999999 556.18 358.9699999999999 556.18 350.56999999999994 C 556.18 342.38999999999993 560.8599999999999 335.73999999999995 569.8399999999999 335.73999999999995 z M 632.78 360.5799999999999 C 632.78 352.9799999999999 628.98 348.6699999999999 622.3299999999999 345.9699999999999 L 615.9799999999999 343.4899999999999 C 612.55 342.0999999999999 611.3799999999999 340.7099999999999 611.3799999999999 338.5999999999999 C 611.3799999999999 336.4799999999999 612.6899999999998 334.7999999999999 615.5399999999998 334.7999999999999 C 618.3899999999999 334.7999999999999 619.9999999999999 336.9899999999999 619.9199999999998 340.1299999999999 L 631.1699999999998 340.1299999999999 C 631.7499999999999 331.14999999999986 627.3699999999999 324.3499999999999 615.4699999999998 324.3499999999999 C 605.6099999999998 324.3499999999999 599.1799999999998 330.4899999999999 599.1799999999998 339.31999999999994 C 599.1799999999998 345.4599999999999 601.8099999999998 350.41999999999996 606.9999999999999 353.04999999999995 C 609.8499999999999 354.43999999999994 612.3299999999999 355.30999999999995 614.8899999999999 356.40999999999997 C 618.1799999999998 357.65 620.2199999999999 359.03999999999996 620.2199999999999 361.89 C 620.2199999999999 364.81 618.2499999999999 366.34999999999997 615.3999999999999 366.34999999999997 C 611.3799999999999 366.34999999999997 610.0699999999998 363.21 610.2899999999998 359.99999999999994 L 598.7499999999999 359.99999999999994 C 598.3899999999999 367.37999999999994 600.9399999999999 376.79999999999995 615.3999999999999 376.79999999999995 C 625.6199999999999 376.78999999999996 632.7799999999999 370.79999999999995 632.7799999999999 360.5799999999999 z M 533.22 394.92999999999995 L 515.5400000000001 445.46999999999997 L 527.5200000000001 445.46999999999997 L 531.6800000000001 433.41999999999996 L 547.6 433.41999999999996 L 551.84 445.46999999999997 L 564.77 445.46999999999997 L 546.0699999999999 394.92999999999995 z M 535.2 423.18999999999994 L 539.6500000000001 410.40999999999997 L 544.1100000000001 423.18999999999994 z M 598.33 425.4599999999999 L 579.34 394.92999999999995 L 566.7800000000001 394.92999999999995 L 566.7800000000001 445.46999999999997 L 578.5400000000001 445.46999999999997 L 578.5400000000001 415.6 L 598.0400000000001 445.47 L 610.09 445.47 L 610.09 394.93 L 598.33 394.93 z M 628.3100000000001 394.92999999999995 L 616.7700000000001 394.92999999999995 L 616.7700000000001 445.46999999999997 L 628.3100000000001 445.46999999999997 C 645.0400000000001 445.46999999999997 655.2600000000001 435.83 655.2600000000001 420.04999999999995 C 655.2600000000001 404.19999999999993 645.0300000000001 394.92999999999995 628.3100000000001 394.92999999999995 z M 628.96 434.72999999999996 L 628.96 405.65999999999997 C 637.21 405.59 642.5400000000001 410.40999999999997 642.5400000000001 420.11999999999995 C 642.5500000000001 429.98999999999995 637.0000000000001 434.72999999999996 628.96 434.72999999999996 z M 671.9000000000001 425.39 L 683.2900000000001 425.39 L 683.2900000000001 414.14 L 671.9 414.14 L 671.9 406.32 L 683.66 406.32 L 683.66 394.93 L 659.7 394.93 L 659.7 445.47 L 683.88 445.47 L 683.88 434.08 L 671.9 434.08 Z M 711.5600000000001 415.59999999999997 L 705.21 413.11999999999995 C 701.7800000000001 411.72999999999996 700.61 410.34 700.61 408.22999999999996 C 700.61 406.10999999999996 701.92 404.42999999999995 704.77 404.42999999999995 C 707.62 404.42999999999995 709.23 406.61999999999995 709.15 409.75999999999993 L 720.4 409.75999999999993 C 720.98 400.7799999999999 716.6 393.97999999999996 704.6999999999999 393.97999999999996 C 694.8399999999999 393.97999999999996 688.41 400.11999999999995 688.41 408.95 C 688.41 415.09 691.04 420.05 696.23 422.68 C 699.08 424.07 701.5600000000001 424.94 704.12 426.04 C 707.41 427.28000000000003 709.45 428.67 709.45 431.52000000000004 C 709.45 434.44000000000005 707.48 435.98 704.63 435.98 C 700.61 435.98 699.3 432.84000000000003 699.52 429.63 L 687.98 429.63 C 687.62 437.01 690.1700000000001 446.43 704.63 446.43 C 714.86 446.43 722.01 440.44 722.01 430.22 C 722.01 422.61 718.21 418.3 711.56 415.6 z M 474.7900000000001 445.46999999999997 L 477.3400000000001 445.46999999999997 L 477.3400000000001 325.3 L 474.7900000000001 325.3 z" stroke-linecap="round" />
</g>
<g transform="matrix(0 0 NaN NaN 108.7 0)"  >
<g style=""   >
</g>
</g>
<g transform="matrix(0 0 NaN NaN 108.7 0)"  >
<g style=""   >
</g>
</g>
</svg>